<?xml version="1.0" encoding="UTF-8" standalone="no"?>
<!-- Created with Inkscape (http://www.inkscape.org/) -->

<svg
   xmlns:dc="http://purl.org/dc/elements/1.1/"
   xmlns:cc="http://creativecommons.org/ns#"
   xmlns:rdf="http://www.w3.org/1999/02/22-rdf-syntax-ns#"
   xmlns:svg="http://www.w3.org/2000/svg"
   xmlns="http://www.w3.org/2000/svg"
   xmlns:sodipodi="http://sodipodi.sourceforge.net/DTD/sodipodi-0.dtd"
   xmlns:inkscape="http://www.inkscape.org/namespaces/inkscape"
   id="svg3355"
   version="1.1"
   inkscape:version="0.91 r13725"
   xml:space="preserve"
   width="1024"
   height="768"
   viewBox="0 0 1024 768"
   sodipodi:docname="floorplan2.svg"><metadata
     id="metadata3361"><rdf:RDF><cc:Work
         rdf:about=""><dc:format>image/svg+xml</dc:format><dc:type
           rdf:resource="http://purl.org/dc/dcmitype/StillImage" /><dc:title /></cc:Work></rdf:RDF></metadata><defs
     id="defs3359" /><sodipodi:namedview
     pagecolor="#ffffff"
     bordercolor="#666666"
     borderopacity="1"
     objecttolerance="10"
     gridtolerance="10"
     guidetolerance="10"
     inkscape:pageopacity="0"
     inkscape:pageshadow="2"
     inkscape:window-width="1920"
     inkscape:window-height="1027"
     id="namedview3357"
     showgrid="false"
     inkscape:zoom="5.7885089"
     inkscape:cx="893.39289"
     inkscape:cy="484.59421"
     inkscape:window-x="0"
     inkscape:window-y="0"
     inkscape:window-maximized="1"
     inkscape:current-layer="g3363"
     fit-margin-top="40"
     fit-margin-left="40"
     fit-margin-right="40"
     fit-margin-bottom="40" /><g
     id="g3363"
     inkscape:groupmode="layer"
     inkscape:label="mar4_95_5c"
     transform="matrix(1.25,0,0,-1.25,-81.084268,1015.5184)"><path
       d="m 458.24721,217.86518 81.19389,0 0,-16.23912 -81.19389,0 0,16.23912 z"
       style="fill:#ffffff;fill-opacity:1;fill-rule:nonzero;stroke:#231f20;stroke-width:1.0150578;stroke-linecap:butt;stroke-linejoin:miter;stroke-miterlimit:3.86400008;stroke-dasharray:none;stroke-opacity:1"
       id="path3365"
       inkscape:connector-curvature="0" /><path
       d="m 403.46094,806.60408 190.11656,0 0,-109.5027 -190.11656,0 0,109.5027 z"
       style="fill:#ffffff;fill-opacity:1;fill-rule:nonzero;stroke:#231f20;stroke-width:1.52169168;stroke-linecap:butt;stroke-linejoin:miter;stroke-miterlimit:3.86400008;stroke-dasharray:none;stroke-opacity:1"
       id="path3367"
       inkscape:connector-curvature="0" /><path
       d="m 781.90732,255.14398 0,443.61608 -540.71789,0.007 -0.002,-443.61786 155.74961,0 0.002,-39.60515 195.49083,0 0.008,39.60515 189.4685,-0.005 z"
       style="fill:#808080;fill-opacity:1;fill-rule:nonzero;stroke:#231f20;stroke-width:14.20901871;stroke-linecap:butt;stroke-linejoin:miter;stroke-miterlimit:3.86400008;stroke-dasharray:none;stroke-opacity:1"
       id="path3369"
       inkscape:connector-curvature="0" /><text
       transform="matrix(0.9998522,-2.5859361e-4,2.5859361e-4,-0.99999997,183.3621,129.1149)"
       style="font-variant:normal;font-weight:normal;font-size:5.41390038px;font-family:ArialMT;-inkscape-font-specification:ArialMT;writing-mode:lr-tb;fill:#231f20;fill-opacity:1;fill-rule:nonzero;stroke:none"
       id="text3471"><tspan
         x="0"
         y="0"
         id="tspan3473"></tspan></text>
<path
       d="m 593.63658,258.28132 0,436.30121 m 189.8194,-180.3688 -536.36585,0 m 539.37342,-135.33925 -193.54306,0"
       style="fill:none;stroke:#231f20;stroke-width:8.62709522;stroke-linecap:butt;stroke-linejoin:miter;stroke-miterlimit:3.86400008;stroke-dasharray:none;stroke-opacity:1"
       id="path3475"
       inkscape:connector-curvature="0" /><path
       d="m 638.79682,388.64195 31.96984,0 0,-15.22407 -31.96984,0 0,15.22407 z"
       style="fill:#808080;fill-opacity:1;fill-rule:nonzero;stroke:none"
       id="path3477"
       inkscape:connector-curvature="0" /><path
       d="m 640.30955,522.49175 31.96984,0 0,-15.22409 -31.96984,0 0,15.22409 z"
       style="fill:#808080;fill-opacity:1;fill-rule:nonzero;stroke:none"
       id="path3479"
       inkscape:connector-curvature="0" /><path
       d="m 670.56974,526.62357 -31.86781,-9.96439 m 27.73953,-125.9889 -30.92613,-9.77285"
       style="fill:none;stroke:#231f20;stroke-width:3.41037917;stroke-linecap:butt;stroke-linejoin:miter;stroke-miterlimit:3.86400008;stroke-dasharray:none;stroke-opacity:1"
       id="path3481"
       inkscape:connector-curvature="0" /><path
       d="m 588.05467,505.7746 15.22407,0 0,-46.88957 -15.22407,0 0,46.88957 z"
       style="fill:#808080;fill-opacity:1;fill-rule:nonzero;stroke:none"
       id="path3485"
       inkscape:connector-curvature="0" /><path
       d="m 774.11191,496.00176 15.22408,0 0,-38.36452 -15.22408,0 0,38.36452 z"
       style="fill:#808080;fill-opacity:1;fill-rule:nonzero;stroke:none"
       id="path3487"
       inkscape:connector-curvature="0" /><path
       d="m 789.76831,456.56669 11.25515,36.59758"
       style="fill:none;stroke:#231f20;stroke-width:3.41037917;stroke-linecap:butt;stroke-linejoin:miter;stroke-miterlimit:3.86400008;stroke-dasharray:none;stroke-opacity:1"
       id="path3489"
       inkscape:connector-curvature="0" /><path
       d="m 597.57866,261.75972 27.70733,0 0,113.16553 -27.70733,0 0,-113.16553 z"
       style="fill:#ffffff;fill-opacity:1;fill-rule:nonzero;stroke:#231f20;stroke-width:1.0150578;stroke-linecap:butt;stroke-linejoin:miter;stroke-miterlimit:3.86400008;stroke-dasharray:none;stroke-opacity:1"
       id="path3491"
       inkscape:connector-curvature="0" /><path
       d="m 743.84725,261.88146 -26.89457,0.002 0,13.57528 c 0,0 0.18082,3.67711 4.17839,3.67711 l 18.44648,0 c 0,0 4.2697,-0.28283 4.2697,-3.11139 l 0,-14.14278 z"
       style="fill:#ffffff;fill-opacity:1;fill-rule:nonzero;stroke:#231f20;stroke-width:1.0150578;stroke-linecap:butt;stroke-linejoin:miter;stroke-miterlimit:3.86400008;stroke-dasharray:none;stroke-opacity:1"
       id="path3493"
       inkscape:connector-curvature="0" /><path
       d="m 741.84935,265.84145 -22.71617,0 0,8.90278 c 0,0 0.15396,2.41142 3.53032,2.41142 l 15.57855,0 c 0,0 3.6073,-0.18617 3.6073,-2.04085 l 0,-9.27335 z"
       style="fill:#ffffff;fill-opacity:1;fill-rule:nonzero;stroke:#231f20;stroke-width:1.0150578;stroke-linecap:butt;stroke-linejoin:miter;stroke-miterlimit:3.86400008;stroke-dasharray:none;stroke-opacity:1"
       id="path3495"
       inkscape:connector-curvature="0" /><path
       d="m 690.57728,281.22663 c 0,7.47778 5.08784,13.53948 11.36436,13.53948 6.27832,0 11.36614,-6.0617 11.36614,-13.53948 0,-7.47777 -5.08782,-13.54126 -11.36614,-13.54126 -6.27652,0 -11.36436,6.0617 -11.36436,13.54126 z"
       style="fill:#ffffff;fill-opacity:1;fill-rule:nonzero;stroke:#231f20;stroke-width:1.0150578;stroke-linecap:butt;stroke-linejoin:miter;stroke-miterlimit:3.86400008;stroke-dasharray:none;stroke-opacity:1"
       id="path3497"
       inkscape:connector-curvature="0" /><path
       d="m 690.87268,261.80805 23.09212,0 0,9.64574 -23.09212,0 0,-9.64574 z"
       style="fill:#ffffff;fill-opacity:1;fill-rule:nonzero;stroke:#231f20;stroke-width:1.0150578;stroke-linecap:butt;stroke-linejoin:miter;stroke-miterlimit:3.86400008;stroke-dasharray:none;stroke-opacity:1"
       id="path3499"
       inkscape:connector-curvature="0" /><path
       d="m 662.35977,706.82766 55.41462,0 0,-16.23914 -55.41462,0 0,16.23914 z"
       style="fill:#ffffff;fill-opacity:1;fill-rule:nonzero;stroke:#231f20;stroke-width:1.0150578;stroke-linecap:butt;stroke-linejoin:miter;stroke-miterlimit:3.86400008;stroke-dasharray:none;stroke-opacity:1"
       id="path3501"
       inkscape:connector-curvature="0" /><path
       d="m 434.13825,706.84735 60.89629,0 0,-16.23913 -60.89629,0 0,16.23913 z"
       style="fill:#ffffff;fill-opacity:1;fill-rule:nonzero;stroke:#231f20;stroke-width:1.0150578;stroke-linecap:butt;stroke-linejoin:miter;stroke-miterlimit:3.86400008;stroke-dasharray:none;stroke-opacity:1"
       id="path3503"
       inkscape:connector-curvature="0" /><path
       d="m 507.11678,705.75353 38.36453,0 0,-15.22408 -38.36453,0 0,15.22408 z"
       style="fill:#808080;fill-opacity:1;fill-rule:nonzero;stroke:none"
       id="path3505"
       inkscape:connector-curvature="0" /><path
       d="m 512.05244,717.51889 36.29502,-13.3533"
       style="fill:none;stroke:#231f20;stroke-width:3.41037917;stroke-linecap:butt;stroke-linejoin:miter;stroke-miterlimit:3.86400008;stroke-dasharray:none;stroke-opacity:1"
       id="path3507"
       inkscape:connector-curvature="0" /><path
       d="m 411.41849,223.4292 38.36453,0 0,-16.23912 -38.36453,0 0,16.23912 z"
       style="fill:#ffffff;fill-opacity:1;fill-rule:nonzero;stroke:#231f20;stroke-width:1.0150578;stroke-linecap:butt;stroke-linejoin:miter;stroke-miterlimit:3.86400008;stroke-dasharray:none;stroke-opacity:1"
       id="path3509"
       inkscape:connector-curvature="0" /><path
       d="m 639.01702,263.04331 31.96984,0 0,-16.23913 -31.96984,0 0,16.23913 z"
       style="fill:#ffffff;fill-opacity:1;fill-rule:nonzero;stroke:#231f20;stroke-width:1.0150578;stroke-linecap:butt;stroke-linejoin:miter;stroke-miterlimit:3.86400008;stroke-dasharray:none;stroke-opacity:1"
       id="path3511"
       inkscape:connector-curvature="0" /><path
       d="m 407.02707,517.9911 32.9849,0 0,32.98491 -32.9849,0 0,-32.98491 z"
       style="fill:#ffffff;fill-opacity:1;fill-rule:nonzero;stroke:#231f20;stroke-width:1.0150578;stroke-linecap:butt;stroke-linejoin:miter;stroke-miterlimit:3.86400008;stroke-dasharray:none;stroke-opacity:1"
       id="path3513"
       inkscape:connector-curvature="0" /><path
       d="m 556.36766,691.97954 32.98491,0 0,-173.5534 -32.98491,0 0,173.5534 z"
       style="fill:#ffffff;fill-opacity:1;fill-rule:nonzero;stroke:#231f20;stroke-width:1.0150578;stroke-linecap:butt;stroke-linejoin:miter;stroke-miterlimit:3.86400008;stroke-dasharray:none;stroke-opacity:1"
       id="path3519"
       inkscape:connector-curvature="0" /><path
       d="m 556.36766,584.02357 32.98491,0 0,-32.9491 -32.98491,0 0,32.9491 z"
       style="fill:#ffffff;fill-opacity:1;fill-rule:nonzero;stroke:#231f20;stroke-width:1.0150578;stroke-linecap:butt;stroke-linejoin:miter;stroke-miterlimit:3.86400008;stroke-dasharray:none;stroke-opacity:1"
       id="path3521"
       inkscape:connector-curvature="0" /><path
       d="m 556.37305,584.05758 25.01481,-15.83811 -14.99314,0 22.15405,-16.54347"
       style="fill:none;stroke:#231f20;stroke-width:1.0150578;stroke-linecap:butt;stroke-linejoin:miter;stroke-miterlimit:3.86400008;stroke-dasharray:none;stroke-opacity:1"
       id="path3523"
       inkscape:connector-curvature="0" /><path
       d="m 546.81144,223.05863 38.36454,0 0,-16.23914 -38.36454,0 0,16.23914 z"
       style="fill:#ffffff;fill-opacity:1;fill-rule:nonzero;stroke:#231f20;stroke-width:1.0150578;stroke-linecap:butt;stroke-linejoin:miter;stroke-miterlimit:3.86400008;stroke-dasharray:none;stroke-opacity:1"
       id="path3539"
       inkscape:connector-curvature="0" /><path
       d="m 747.21823,343.26512 31.46322,0 0,-80.99161 -31.46322,0 0,80.99161 z"
       style="fill:#ffffff;fill-opacity:1;fill-rule:nonzero;stroke:#231f20;stroke-width:1.0150578;stroke-linecap:butt;stroke-linejoin:miter;stroke-miterlimit:3.86400008;stroke-dasharray:none;stroke-opacity:1"
       id="path3541"
       inkscape:connector-curvature="0" /><path
       d="m 762.63208,265.67495 c -13.006,0 -13.006,13.67911 -13.006,13.67911 l 0.002,46.47067 c 0,0 0,13.67911 13.00598,13.67911 13.00598,0.002 13.00598,-13.67911 13.00598,-13.67911 l -0.002,-46.46889 c 0,0 0,-13.68089 -13.00598,-13.68089 z"
       style="fill:#ffffff;fill-opacity:1;fill-rule:nonzero;stroke:#231f20;stroke-width:1.0150578;stroke-linecap:butt;stroke-linejoin:miter;stroke-miterlimit:3.86400008;stroke-dasharray:none;stroke-opacity:1"
       id="path3543"
       inkscape:connector-curvature="0" /><path
       d="m 683.56498,254.99625 0.002,123.39308"
       style="fill:none;stroke:#231f20;stroke-width:8.62709522;stroke-linecap:butt;stroke-linejoin:miter;stroke-miterlimit:3.86400008;stroke-dasharray:none;stroke-opacity:1"
       id="path3545"
       inkscape:connector-curvature="0" /><path
       d="m 709.33169,386.95556 31.96985,0 0,-15.22408 -31.96985,0 0,15.22408 z"
       style="fill:#808080;fill-opacity:1;fill-rule:nonzero;stroke:none"
       id="path3547"
       inkscape:connector-curvature="0" /><path
       d="m 714.98344,390.70966 30.92435,-9.77284"
       style="fill:none;stroke:#231f20;stroke-width:3.41037917;stroke-linecap:butt;stroke-linejoin:miter;stroke-miterlimit:3.86400008;stroke-dasharray:none;stroke-opacity:1"
       id="path3549"
       inkscape:connector-curvature="0" /><path
       d="m 439.92245,517.9911 32.98491,0 0,32.98491 -32.98491,0 0,-32.98491 z"
       style="fill:#ffffff;fill-opacity:1;fill-rule:nonzero;stroke:#231f20;stroke-width:1.0150578;stroke-linecap:butt;stroke-linejoin:miter;stroke-miterlimit:3.86400008;stroke-dasharray:none;stroke-opacity:1"
       id="path3559"
       inkscape:connector-curvature="0" /><path
       d="m 472.81784,517.9911 32.98491,0 0,32.98491 -32.98491,0 0,-32.98491 z"
       style="fill:#ffffff;fill-opacity:1;fill-rule:nonzero;stroke:#231f20;stroke-width:1.0150578;stroke-linecap:butt;stroke-linejoin:miter;stroke-miterlimit:3.86400008;stroke-dasharray:none;stroke-opacity:1"
       id="path3565"
       inkscape:connector-curvature="0" /><path
       d="m 511.40617,522.48636 35.52164,0 0,-15.22407 -35.52164,0 0,15.22407 z"
       style="fill:#808080;fill-opacity:1;fill-rule:nonzero;stroke:none"
       id="path3571"
       inkscape:connector-curvature="0" /><path
       d="m 541.6735,526.62357 -31.8678,-9.96439"
       style="fill:none;stroke:#231f20;stroke-width:3.41037917;stroke-linecap:butt;stroke-linejoin:miter;stroke-miterlimit:3.86400008;stroke-dasharray:none;stroke-opacity:1"
       id="path3573"
       inkscape:connector-curvature="0" /><path
       d="m 597.43366,383.10478 32.98489,0 0,32.98491 -32.98489,0 0,-32.98491 z"
       style="fill:#ffffff;fill-opacity:1;fill-rule:nonzero;stroke:#231f20;stroke-width:1.0150578;stroke-linecap:butt;stroke-linejoin:miter;stroke-miterlimit:3.86400008;stroke-dasharray:none;stroke-opacity:1"
       id="path3575"
       inkscape:connector-curvature="0" /><path
       d="m 597.43366,416.00017 32.98489,0 0,32.98491 -32.98489,0 0,-32.98491 z"
       style="fill:#ffffff;fill-opacity:1;fill-rule:nonzero;stroke:#231f20;stroke-width:1.0150578;stroke-linecap:butt;stroke-linejoin:miter;stroke-miterlimit:3.86400008;stroke-dasharray:none;stroke-opacity:1"
       id="path3581"
       inkscape:connector-curvature="0" /><path
       d="m 463.22224,223.51514 71.0451,0 0,-15.22409 -71.0451,0 0,15.22409 z"
       style="fill:#808080;fill-opacity:1;fill-rule:nonzero;stroke:none"
       id="path3587"
       inkscape:connector-curvature="0" /><path
       d="m 493.43409,230.23923 -32.71458,-9.77106 m 45.31777,9.77106 32.71459,-9.77106"
       style="fill:none;stroke:#231f20;stroke-width:3.41037917;stroke-linecap:butt;stroke-linejoin:miter;stroke-miterlimit:3.86400008;stroke-dasharray:none;stroke-opacity:1"
       id="path3589"
       inkscape:connector-curvature="0" /><path
       d="m 587.98485,245.25563 16.23912,0 0,-20.29758 -16.23912,0 0,20.29758 z"
       style="fill:#ffffff;fill-opacity:1;fill-rule:nonzero;stroke:#231f20;stroke-width:1.0150578;stroke-linecap:butt;stroke-linejoin:miter;stroke-miterlimit:3.86400008;stroke-dasharray:none;stroke-opacity:1"
       id="path3591"
       inkscape:connector-curvature="0" /><path
       d="m 392.40272,245.25563 16.23912,0 0,-20.29758 -16.23912,0 0,20.29758 z"
       style="fill:#ffffff;fill-opacity:1;fill-rule:nonzero;stroke:#231f20;stroke-width:1.0150578;stroke-linecap:butt;stroke-linejoin:miter;stroke-miterlimit:3.86400008;stroke-dasharray:none;stroke-opacity:1"
       id="path3593"
       inkscape:connector-curvature="0" /><path
       d="m 692.72377,263.04331 31.96984,0 0,-16.23913 -31.96984,0 0,16.23913 z"
       style="fill:#ffffff;fill-opacity:1;fill-rule:nonzero;stroke:#231f20;stroke-width:1.0150578;stroke-linecap:butt;stroke-linejoin:miter;stroke-miterlimit:3.86400008;stroke-dasharray:none;stroke-opacity:1"
       id="path3595"
       inkscape:connector-curvature="0" /><path
       d="m 764.53867,388.87826 14.20901,0 0,60.89631 -14.20901,0 0,-60.89631 z"
       style="fill:#ffffff;fill-opacity:1;fill-rule:nonzero;stroke:#231f20;stroke-width:1.0150578;stroke-linecap:butt;stroke-linejoin:miter;stroke-miterlimit:3.86400008;stroke-dasharray:none;stroke-opacity:1"
       id="path3597"
       inkscape:connector-curvature="0" /><path
       d="m 403.24431,258.28132 0,436.30121"
       style="fill:none;stroke:#231f20;stroke-width:8.62709522;stroke-linecap:butt;stroke-linejoin:miter;stroke-miterlimit:3.86400008;stroke-dasharray:none;stroke-opacity:1"
       id="path3599"
       inkscape:connector-curvature="0" /><path
       d="m 395.67883,494.05221 15.22407,0 0,-50.74572 -15.22407,0 0,50.74572 z"
       style="fill:#808080;fill-opacity:1;fill-rule:nonzero;stroke:none"
       id="path3601"
       inkscape:connector-curvature="0" /><path
       d="m 395.67883,595.18025 15.22407,0 0,-35.52164 -15.22407,0 0,35.52164 z"
       style="fill:#808080;fill-opacity:1;fill-rule:nonzero;stroke:none"
       id="path3603"
       inkscape:connector-curvature="0" /><path
       d="m 401.0495,426.49268 -153.95937,0 m 88.12562,-1.47156 0,87.72103"
       style="fill:none;stroke:#231f20;stroke-width:8.62709522;stroke-linecap:butt;stroke-linejoin:miter;stroke-miterlimit:3.86400008;stroke-dasharray:none;stroke-opacity:1"
       id="path3605"
       inkscape:connector-curvature="0" /><path
       d="m 357.31073,522.14442 31.96984,0 0,-15.22408 -31.96984,0 0,15.22408 z"
       style="fill:#808080;fill-opacity:1;fill-rule:nonzero;stroke:none"
       id="path3607"
       inkscape:connector-curvature="0" /><path
       d="M 362.96246,525.89854 393.8886,516.1257"
       style="fill:none;stroke:#231f20;stroke-width:3.41037917;stroke-linecap:butt;stroke-linejoin:miter;stroke-miterlimit:3.86400008;stroke-dasharray:none;stroke-opacity:1"
       id="path3609"
       inkscape:connector-curvature="0" /><path
       d="m 357.31073,433.22573 31.96984,0 0,-15.22408 -31.96984,0 0,15.22408 z"
       style="fill:#808080;fill-opacity:1;fill-rule:nonzero;stroke:none"
       id="path3611"
       inkscape:connector-curvature="0" /><path
       d="m 361.88833,414.96364 30.92613,9.77283"
       style="fill:none;stroke:#231f20;stroke-width:3.41037917;stroke-linecap:butt;stroke-linejoin:miter;stroke-miterlimit:3.86400008;stroke-dasharray:none;stroke-opacity:1"
       id="path3613"
       inkscape:connector-curvature="0" /><path
       d="m 327.96534,471.64755 15.22408,0 0,-35.52166 -15.22408,0 0,35.52166 z"
       style="fill:#808080;fill-opacity:1;fill-rule:nonzero;stroke:none"
       id="path3615"
       inkscape:connector-curvature="0" /><path
       d="m 337.0203,433.47277 13.04538,31.22691"
       style="fill:none;stroke:#231f20;stroke-width:3.41037917;stroke-linecap:butt;stroke-linejoin:miter;stroke-miterlimit:3.86400008;stroke-dasharray:none;stroke-opacity:1"
       id="path3617"
       inkscape:connector-curvature="0" /><path
       d="m 284.54342,706.84735 60.89632,0 0,-16.23913 -60.89632,0 0,16.23913 z"
       style="fill:#ffffff;fill-opacity:1;fill-rule:nonzero;stroke:#231f20;stroke-width:1.0150578;stroke-linecap:butt;stroke-linejoin:miter;stroke-miterlimit:3.86400008;stroke-dasharray:none;stroke-opacity:1"
       id="path3619"
       inkscape:connector-curvature="0" /><path
       d="m 286.33365,263.3387 60.89631,0 0,-16.23914 -60.89631,0 0,16.23914 z"
       style="fill:#ffffff;fill-opacity:1;fill-rule:nonzero;stroke:#231f20;stroke-width:1.0150578;stroke-linecap:butt;stroke-linejoin:miter;stroke-miterlimit:3.86400008;stroke-dasharray:none;stroke-opacity:1"
       id="path3621"
       inkscape:connector-curvature="0" /><path
       d="m 366.2708,659.47083 32.98491,0 0,32.98489 -32.98491,0 0,-32.98489 z"
       style="fill:#ffffff;fill-opacity:1;fill-rule:nonzero;stroke:#231f20;stroke-width:1.0150578;stroke-linecap:butt;stroke-linejoin:miter;stroke-miterlimit:3.86400008;stroke-dasharray:none;stroke-opacity:1"
       id="path3629"
       inkscape:connector-curvature="0" /><path
       d="m 405.49642,556.55076 13.04538,31.22691"
       style="fill:none;stroke:#231f20;stroke-width:3.41037917;stroke-linecap:butt;stroke-linejoin:miter;stroke-miterlimit:3.86400008;stroke-dasharray:none;stroke-opacity:1"
       id="path3635"
       inkscape:connector-curvature="0" /><path
       d="m 290.40462,510.21795 26.89457,0 0.002,-13.57708 c 0,0 -0.1826,-3.67711 -4.18017,-3.67711 l -18.44469,0 c 0,0 -4.27148,0.28285 -4.27148,3.11141 l 0,14.14278 z"
       style="fill:#ffffff;fill-opacity:1;fill-rule:nonzero;stroke:#231f20;stroke-width:1.0150578;stroke-linecap:butt;stroke-linejoin:miter;stroke-miterlimit:3.86400008;stroke-dasharray:none;stroke-opacity:1"
       id="path3637"
       inkscape:connector-curvature="0" /><path
       d="m 292.4043,506.25796 22.71439,0 0,-8.90279 c 0,0 -0.15218,-2.41143 -3.53034,-2.41143 l -15.57853,0 c 0,0 -3.60552,0.18618 -3.60552,2.04087 l 0,9.27335 z"
       style="fill:#ffffff;fill-opacity:1;fill-rule:nonzero;stroke:#231f20;stroke-width:1.0150578;stroke-linecap:butt;stroke-linejoin:miter;stroke-miterlimit:3.86400008;stroke-dasharray:none;stroke-opacity:1"
       id="path3639"
       inkscape:connector-curvature="0" /><path
       d="m 270.15538,489.56233 c 7.47957,0 13.54127,-5.08782 13.54127,-11.36435 0,-6.27832 -6.0617,-11.36615 -13.53948,-11.36615 -7.47956,0 -13.54125,5.08783 -13.54125,11.36615 0,6.27653 6.06169,11.36435 13.53946,11.36435 z"
       style="fill:#ffffff;fill-opacity:1;fill-rule:nonzero;stroke:#231f20;stroke-width:1.0150578;stroke-linecap:butt;stroke-linejoin:miter;stroke-miterlimit:3.86400008;stroke-dasharray:none;stroke-opacity:1"
       id="path3641"
       inkscape:connector-curvature="0" /><path
       d="m 250.7386,489.26694 9.64573,0 0,-23.09213 -9.64573,0 0,23.09213 z"
       style="fill:#ffffff;fill-opacity:1;fill-rule:nonzero;stroke:#231f20;stroke-width:1.0150578;stroke-linecap:butt;stroke-linejoin:miter;stroke-miterlimit:3.86400008;stroke-dasharray:none;stroke-opacity:1"
       id="path3643"
       inkscape:connector-curvature="0" /><path
       d="m 246.19501,447.17516 11.63646,0"
       style="fill:none;stroke:#231f20;stroke-width:1.0150578;stroke-linecap:butt;stroke-linejoin:miter;stroke-miterlimit:3.86400008;stroke-dasharray:none;stroke-opacity:1"
       id="path3645"
       inkscape:connector-curvature="0" /><path
       d="m 257.21564,447.28795 6.81896,6.26578 0,-12.48324 -6.81896,6.21746 z"
       style="fill:#ffffff;fill-opacity:1;fill-rule:nonzero;stroke:#231f20;stroke-width:1.0150578;stroke-linecap:butt;stroke-linejoin:miter;stroke-miterlimit:3.86400008;stroke-dasharray:none;stroke-opacity:1"
       id="path3647"
       inkscape:connector-curvature="0" /><g
       id="g3873"
       transform="matrix(0,-0.9488428,1.4710071,0,269.26584,796.76768)"><path
         id="path3781"
         d="m 177.72573,276.99426 -62.56,0 c -1.2,0 -2.16,0.96 -2.16,2.08 l 0,61.44 c 0,1.2 0.96,2.08 2.16,2.08 l 62.48,0 c 1.2,0 2.16,-0.96 2.16,-2.08 l 0,-61.36 c 0,-1.2 -0.96,-2.16 -2.08,-2.16 z m -62.56,64 c -0.32,0 -0.56,-0.24 -0.56,-0.48 l 0,-61.36 c 0,-0.24 0.24,-0.48 0.56,-0.48 l 62.48,0 c 0.32,0 0.56,0.24 0.56,0.48 l 0,61.36 c 0,0.24 -0.24,0.48 -0.56,0.48 l -62.48,0 z"
         inkscape:connector-curvature="0" /><rect
         transform="scale(1,-1)"
         id="rect3783"
         height="1.6"
         width="0.80000001"
         y="-323.71423"
         x="114.68575" /><rect
         transform="scale(1,-1)"
         id="rect3785"
         height="1.6"
         width="3.28"
         y="-323.71423"
         x="170.92574" /><rect
         transform="scale(1,-1)"
         id="rect3787"
         height="1.6"
         width="3.28"
         y="-323.71423"
         x="164.36574" /><rect
         transform="scale(1,-1)"
         id="rect3789"
         height="1.6"
         width="3.28"
         y="-323.71423"
         x="157.88573" /><rect
         transform="scale(1,-1)"
         id="rect3791"
         height="1.6"
         width="3.28"
         y="-323.71423"
         x="151.32573" /><rect
         transform="scale(1,-1)"
         id="rect3793"
         height="1.6"
         width="3.28"
         y="-323.71423"
         x="144.84575" /><rect
         transform="scale(1,-1)"
         id="rect3795"
         height="1.6"
         width="3.28"
         y="-323.71423"
         x="138.28572" /><rect
         transform="scale(1,-1)"
         id="rect3797"
         height="1.6"
         width="3.28"
         y="-323.71423"
         x="131.80574" /><rect
         transform="scale(1,-1)"
         id="rect3799"
         height="1.6"
         width="3.28"
         y="-323.71423"
         x="125.24574" /><rect
         transform="scale(1,-1)"
         id="rect3801"
         height="1.6"
         width="3.28"
         y="-323.71423"
         x="118.76573" /><rect
         transform="scale(1,-1)"
         id="rect3803"
         height="1.6"
         width="0.80000001"
         y="-323.71423"
         x="177.40575" /><path
         id="path3805"
         d="m 144.04573,325.95426 -21.04,0 c -1.04,0 -1.92,0.88 -1.92,1.92 l 0,9.44 c 0,1.04 0.88,1.92 1.92,1.92 l 21.04,0 c 1.04,0 1.92,-0.88 1.92,-1.92 l 0,-9.36 c 0.08,-1.12 -0.8,-2 -1.92,-2 z m -21.04,11.68 c -0.16,0 -0.32,-0.16 -0.32,-0.32 l 0,-9.36 c 0,-0.16 0.16,-0.32 0.32,-0.32 l 21.04,0 c 0.16,0 0.32,0.16 0.32,0.32 l 0,9.36 c 0,0.16 -0.16,0.32 -0.32,0.32 l -21.04,0 z"
         inkscape:connector-curvature="0" /><path
         id="path3807"
         d="m 170.68573,325.95426 -21.12,0 c -1.04,0 -1.92,0.88 -1.92,1.92 l 0,9.44 c 0,1.04 0.88,1.92 1.92,1.92 l 21.04,0 c 1.04,0 1.92,-0.88 1.92,-1.92 l 0,-9.36 c 0.08,-1.12 -0.8,-2 -1.84,-2 z m -21.12,11.68 c -0.16,0 -0.32,-0.16 -0.32,-0.32 l 0,-9.36 c 0,-0.16 0.16,-0.32 0.32,-0.32 l 21.04,0 c 0.16,0 0.32,0.16 0.32,0.32 l 0,9.36 c 0,0.16 -0.16,0.32 -0.32,0.32 l -21.04,0 z"
         inkscape:connector-curvature="0" /></g><path
       style="fill:none;fill-rule:evenodd;stroke:#000000;stroke-width:2.22164869;stroke-linecap:round"
       inkscape:connector-curvature="0"
       d="m 763.34519,616.16869 0,-26.65978"
       id="path4781" /><path
       style="fill:none;fill-rule:evenodd;stroke:#000000;stroke-width:2.22164869;stroke-linecap:round"
       inkscape:connector-curvature="0"
       d="m 763.34519,589.50891 c 0,-29.25134 -14.40851,-33.32474 -32.21391,-33.32474"
       id="path4783" /><path
       style="fill:none;fill-rule:evenodd;stroke:#000000;stroke-width:2.22164869"
       inkscape:connector-curvature="0"
       d="m 731.13128,556.18417 0,3.33248"
       id="path4785" /><g
       id="switch.golvlampa_sovrum"
       inkscape:label="#g4305"><path
         id="path4779"
         d="m 768.89931,617.27952 c 0,1.84063 -3.73015,3.33247 -8.33118,3.33247 -4.60104,0 -8.33119,-1.49184 -8.33119,-3.33247 0,-1.84064 3.73015,-3.33248 8.33119,-3.33248 4.60103,0 8.33118,1.49184 8.33118,3.33248 l 0,0 z"
         inkscape:connector-curvature="0"
         style="fill:none;fill-rule:evenodd;stroke:#000000;stroke-width:2.22164869" /><path
         id="path4787"
         d="m 723.35551,560.62747 15.55154,0"
         inkscape:connector-curvature="0"
         style="fill:none;fill-rule:evenodd;stroke:#000000;stroke-width:2.22164869;stroke-linecap:round" /><path
         id="path4789"
         d="m 723.35551,567.29242 0,-6.66495"
         inkscape:connector-curvature="0"
         style="fill:none;fill-rule:evenodd;stroke:#000000;stroke-width:2.22164869;stroke-linecap:round" /><path
         id="path4791"
         d="m 738.90705,567.29242 0,-6.66495"
         inkscape:connector-curvature="0"
         style="fill:none;fill-rule:evenodd;stroke:#000000;stroke-width:2.22164869;stroke-linecap:round" /><path
         id="path4793"
         d="m 723.35551,567.29242 15.55154,0"
         inkscape:connector-curvature="0"
         style="fill:none;fill-rule:evenodd;stroke:#000000;stroke-width:2.22164869;stroke-linecap:round" /><path
         id="path4795"
         d="m 736.6854,567.29242 0,4.4433"
         inkscape:connector-curvature="0"
         style="fill:none;fill-rule:evenodd;stroke:#000000;stroke-width:2.22164869" /><path
         id="path4797"
         d="m 725.57716,567.29242 0,4.4433"
         inkscape:connector-curvature="0"
         style="fill:none;fill-rule:evenodd;stroke:#000000;stroke-width:2.22164869" /><path
         id="path4799"
         d="m 736.6854,571.73572 -11.10824,0"
         inkscape:connector-curvature="0"
         style="fill:none;fill-rule:evenodd;stroke:#000000;stroke-width:2.22164869;stroke-linecap:round" /></g><text
       xml:space="preserve"
       style="font-style:normal;font-weight:normal;font-size:37.63780212px;line-height:125%;font-family:sans-serif;text-align:center;letter-spacing:0px;word-spacing:0px;writing-mode:lr-tb;text-anchor:middle;fill:#000000;fill-opacity:1;stroke:none;stroke-width:1px;stroke-linecap:butt;stroke-linejoin:miter;stroke-opacity:1"
       x="489.48132"
       y="-520.06665"
       id="sensor.kyl_temperature"
       sodipodi:linespacing="125%"
       transform="scale(1,-1)"
       inkscape:label="#text4903"><tspan
         sodipodi:role="line"
         id="tspan4905"
         x="489.48132"
         y="-520.06665">T</tspan></text>
<path
       inkscape:connector-curvature="0"
       id="light.bedroom_ceiling"
       d="m 686.60644,611.05476 -11.34937,0 0,5.23817 -4.36511,0 0,16.5875 -1.74607,0 0,-16.5875 -4.36513,0 0,-5.23817 -11.34936,0 a 9.6033016,9.6033016 0 0 1 -9.6033,-9.60331 l 0,-0.87302 20.07962,0 0,-4.36515 a 6.111196,6.111196 0 1 1 12.22239,0 l 0,4.36515 20.07962,0 0,0.87302 a 9.6033016,9.6033016 0 0 1 -9.60329,9.60331 z m -20.07962,3.49209 6.98422,0 0,-3.49209 -6.98422,0 z m 7.85724,-18.33357"
       style="fill:#ff0000;fill-opacity:1"
       inkscape:label="#path17905" /><rect
       id="rect17907"
       height="3.49211"
       width="1.746055"
       y="-586.60999"
       x="669.14587"
       transform="scale(1,-1)" /><rect
       id="rect17909"
       transform="matrix(0.70710678,0.70710678,0.70710678,-0.70710678,0,0)"
       height="1.746055"
       width="4.9413357"
       y="49.462917"
       x="881.16046" /><rect
       id="rect17911"
       transform="matrix(0.70710678,0.70710678,0.70710678,-0.70710678,0,0)"
       height="4.9413357"
       width="1.746055"
       y="61.446404"
       x="896.33484" /><path
       inkscape:connector-curvature="0"
       id="light.entrance_ceiling"
       d="m 707.08709,452.06672 -11.34937,0 0,5.23816 -4.36513,0 0,16.58752 -1.74608,0 0,-16.58752 -4.36513,0 0,-5.23816 -11.34934,0 a 9.6033016,9.6033016 0 0 1 -9.60331,-9.60331 l 0,-0.87302 20.07962,0 0,-4.36514 a 6.111196,6.111196 0 1 1 12.2224,0 l 0,4.36514 20.07961,0 0,0.87302 a 9.6033016,9.6033016 0 0 1 -9.60327,9.60331 z m -20.07966,3.4921 6.98423,0 0,-3.4921 -6.98423,0 z m 7.85726,-18.33357"
       style="fill:#ff0000;fill-opacity:1"
       inkscape:label="#path17905-3" /><rect
       id="rect17907-6"
       height="3.49211"
       width="1.746055"
       y="-427.62183"
       x="689.62653"
       transform="scale(1,-1)" /><rect
       id="rect17909-7"
       transform="matrix(0.70710678,0.70710678,0.70710678,-0.70710678,0,0)"
       height="1.746055"
       width="4.9413357"
       y="176.36642"
       x="783.22101" /><rect
       id="rect17911-5"
       transform="matrix(0.70710678,0.70710678,0.70710678,-0.70710678,0,0)"
       height="4.9413357"
       width="1.746055"
       y="188.34991"
       x="798.3952" /><path
       inkscape:connector-curvature="0"
       id="light.kitchen_table_ceiling"
       d="m 475.8317,633.66148 -11.34937,0 0,5.23816 -4.36513,0 0,16.58751 -1.74605,0 0,-16.58751 -4.36515,0 0,-5.23816 -11.34935,0 a 9.6033016,9.6033016 0 0 1 -9.6033,-9.60332 l 0,-0.87302 20.07963,0 0,-4.36514 a 6.111196,6.111196 0 1 1 12.22239,0 l 0,4.36514 20.07961,0 0,0.87302 a 9.6033016,9.6033016 0 0 1 -9.60328,9.60332 z m -20.07963,3.4921 6.98422,0 0,-3.4921 -6.98422,0 z M 463.60931,618.82"
       style="fill:#ff0000;fill-opacity:1"
       inkscape:label="#path17905-3-3" /><rect
       id="rect17907-6-5"
       height="3.49211"
       width="1.746055"
       y="-609.21667"
       x="458.37115"
       transform="scale(1,-1)" /><rect
       id="rect17909-7-6"
       transform="matrix(0.70710678,0.70710678,0.70710678,-0.70710678,0,0)"
       height="1.746055"
       width="4.9413357"
       y="-115.56268"
       x="748.10571" /><rect
       id="rect17911-5-2"
       transform="matrix(0.70710678,0.70710678,0.70710678,-0.70710678,0,0)"
       height="4.9413357"
       width="1.746055"
       y="-103.57919"
       x="763.27985" /><path
       inkscape:connector-curvature="0"
       id="light.living_room_ceiling"
       d="m 521.04507,462.44356 -11.34936,0 0,5.23816 -4.36512,0 0,16.58752 -1.74606,0 0,-16.58752 -4.36514,0 0,-5.23816 -11.34935,0 a 9.6033016,9.6033016 0 0 1 -9.60332,-9.6033 l 0,-0.87302 20.07964,0 0,-4.36515 a 6.1111948,6.1111948 0 1 1 12.22239,0 l 0,4.36515 20.07961,0 0,0.87302 a 9.6033016,9.6033016 0 0 1 -9.60329,9.6033 z m -20.07963,3.4921 6.98422,0 0,-3.4921 -6.98422,0 z m 7.85724,-18.33357"
       style="fill:#ff0000;fill-opacity:1"
       inkscape:label="#path17905-3-3-9" /><rect
       id="rect17907-6-5-1"
       height="3.49211"
       width="1.746055"
       y="-437.99875"
       x="503.58453"
       transform="scale(1,-1)" /><rect
       id="rect17909-7-6-2"
       transform="matrix(0.70710678,0.70710678,0.70710678,-0.70710678,0,0)"
       height="1.746055"
       width="4.9413357"
       y="37.477345"
       x="659.00708" /><rect
       id="rect17911-5-2-7"
       transform="matrix(0.70710678,0.70710678,0.70710678,-0.70710678,0,0)"
       height="4.9413357"
       width="1.746055"
       y="49.460838"
       x="674.18127" /><path
       inkscape:connector-curvature="0"
       id="light.living_room_sofa_table"
       d="m 507.70343,325.32097 -11.34936,0 0,5.23817 -4.36513,0 0,16.58752 -1.74606,0 0,-16.58752 -4.36514,0 0,-5.23817 -11.34934,0 a 9.6033016,9.6033016 0 0 1 -9.60331,-9.6033 l 0,-0.87301 20.07963,0 0,-4.36516 a 6.111196,6.111196 0 1 1 12.22239,0 l 0,4.36516 20.07962,0 0,0.87301 a 9.6033016,9.6033016 0 0 1 -9.6033,9.6033 z m -20.07962,3.49211 6.98422,0 0,-3.49211 -6.98422,0 z m 7.85724,-18.33358"
       style="fill:#ff0000;fill-opacity:1"
       inkscape:label="#path17905-3-3-9-0" /><rect
       id="rect17907-6-5-1-9"
       height="3.49211"
       width="1.746055"
       y="-300.87616"
       x="490.24289"
       transform="scale(1,-1)" /><rect
       id="rect17909-7-6-2-3"
       transform="matrix(0.70710678,0.70710678,0.70710678,-0.70710678,0,0)"
       height="1.746055"
       width="4.9413357"
       y="125.00365"
       x="552.61279" /><rect
       id="rect17911-5-2-7-6"
       transform="matrix(0.70710678,0.70710678,0.70710678,-0.70710678,0,0)"
       height="4.9413357"
       width="1.746055"
       y="136.98715"
       x="567.78705" /><path
       inkscape:connector-curvature="0"
       id="light.fredrik_bedroom_ceiling"
       d="m 337.96793,340.14505 -11.34937,0 0,5.23816 -4.36513,0 0,16.58752 -1.74606,0 0,-16.58752 -4.36514,0 0,-5.23816 -11.34934,0 a 9.6033016,9.6033016 0 0 1 -9.60332,-9.60331 l 0,-0.87303 20.07965,0 0,-4.36513 a 6.1111945,6.1111945 0 1 1 12.22237,0 l 0,4.36513 20.07961,0 0,0.87303 a 9.6033016,9.6033016 0 0 1 -9.60327,9.60331 z m -20.07963,3.49211 6.98421,0 0,-3.49211 -6.98421,0 z m 7.85723,-18.33358"
       style="fill:#ff0000;fill-opacity:1"
       inkscape:label="#path17905-3-3-9-06" /><rect
       id="rect17907-6-5-1-2"
       height="3.49211"
       width="1.746055"
       y="-315.70023"
       x="320.50735"
       transform="scale(1,-1)" /><rect
       id="rect17909-7-6-2-6"
       transform="matrix(0.70710678,0.70710678,0.70710678,-0.70710678,0,0)"
       height="1.746055"
       width="4.9413357"
       y="-5.499661"
       x="443.07382" /><rect
       id="rect17911-5-2-7-1"
       transform="matrix(0.70710678,0.70710678,0.70710678,-0.70710678,0,0)"
       height="4.9413357"
       width="1.746055"
       y="6.4838395"
       x="458.24811" /><path
       inkscape:connector-curvature="0"
       id="light.bathroom_ceiling"
       d="m 733.02918,338.66263 -11.34937,0 0,5.23817 -4.36512,0 0,16.5875 -1.74607,0 0,-16.5875 -4.36515,0 0,-5.23817 -11.34934,0 a 9.6033016,9.6033016 0 0 1 -9.6033,-9.6033 l 0,-0.87303 20.07962,0 0,-4.36514 a 6.111196,6.111196 0 1 1 12.22239,0 l 0,4.36514 20.07962,0 0,0.87303 a 9.6033016,9.6033016 0 0 1 -9.60328,9.6033 z m -20.07963,3.4921 6.98422,0 0,-3.4921 -6.98422,0 z m 7.85724,-18.33357"
       style="fill:#ff0000;fill-opacity:1"
       inkscape:label="#path17905-3-3-9-8" /><rect
       id="rect17907-6-5-1-7"
       height="3.49211"
       width="1.746055"
       y="-314.21774"
       x="715.5686"
       transform="scale(1,-1)" /><rect
       id="rect17909-7-6-2-9"
       transform="matrix(0.70710678,0.70710678,0.70710678,-0.70710678,0,0)"
       height="1.746055"
       width="4.9413357"
       y="274.89902"
       x="721.37616" /><rect
       id="rect17911-5-2-7-2"
       transform="matrix(0.70710678,0.70710678,0.70710678,-0.70710678,0,0)"
       height="4.9413357"
       width="1.746055"
       y="286.88254"
       x="736.55042" /><path
       inkscape:connector-curvature="0"
       style="fill:#ff0000;fill-opacity:1;fill-rule:evenodd"
       d="m 626.43962,459.21203 0.7022,0 c 0.31351,0 0.58904,-0.20785 0.67518,-0.50931 l 1.40442,-4.91544 c 0.12817,-0.44859 -0.20867,-0.89513 -0.67519,-0.89513 l -22.47064,0 c -0.46656,0 -0.80336,0.44654 -0.67519,0.89513 l 1.4044,4.91544 c 0.0861,0.30146 0.36167,0.50931 0.6752,0.50931 l 0.7022,0 0,22.47065 -1.40441,0 c -0.46654,0 -0.80337,0.44653 -0.67518,0.8951 l 1.40441,4.91545 c 0.0861,0.30146 0.36166,0.5093 0.67518,0.5093 l 2.10663,0 0,4.91546 c 0,3.49125 2.8276,6.31986 6.31978,6.31986 l 1.40458,0 c 3.48828,0 6.31978,-2.83375 6.31978,-6.31986 l 0,-4.91546 2.10665,0 c 0.31351,0 0.58903,-0.20784 0.67518,-0.5093 l 1.4044,-4.91545 c 0.12817,-0.44857 -0.20864,-0.8951 -0.67519,-0.8951 l -1.40439,0 0,-22.47065 z m -3.51106,33.70596 c 0,2.7107 -2.20298,4.91545 -4.91537,4.91545 l -1.40458,0 c -2.71642,0 -4.91537,-2.19974 -4.91537,-4.91545 l 0,-4.91546 11.23532,0 0,4.91546 z m -15.21984,-9.8309 19.20436,0 -1.00316,3.51103 -17.19804,0 -1.00316,-3.51103 z m 13.11323,-23.87506 4.21324,0 0,22.47065 -15.44857,0 0,-22.47065 4.21324,0 0,6.31987 c 0,0.3878 0.31439,0.70219 0.70222,0.70219 l 5.61765,0 c 0.38781,0 0.70222,-0.31439 0.70222,-0.70219 l 0,-6.31987 z m -12.81228,-1.40442 -1.00315,-3.51104 20.60876,0 -1.00314,3.51104 -18.60247,0 z m 7.19462,7.02207 0,-5.61765 4.21324,0 0,5.61765 -4.21324,0 z m 2.10661,4.21325 c -1.93907,0 -3.51104,1.57194 -3.51104,3.51104 0,0.68977 0.36003,1.63192 0.99831,2.84089 0.15341,0.29067 0.32116,0.59215 0.50092,0.90202 0.31366,0.54071 0.64887,1.08154 0.98403,1.5976 0.11725,0.18066 0.22634,0.34545 0.32436,0.49121 0.0593,0.0882 0.10209,0.15092 0.12569,0.18504 0.27916,0.40415 0.87638,0.40415 1.15554,0 0.0234,-0.0343 0.0663,-0.0968 0.12568,-0.18504 0.0981,-0.1457 0.20706,-0.31055 0.32437,-0.49121 0.33516,-0.51606 0.67036,-1.05689 0.98403,-1.5976 0.17974,-0.30987 0.34746,-0.61135 0.50093,-0.90202 0.63825,-1.20897 0.99831,-2.15112 0.99831,-2.84089 0,-1.9391 -1.57197,-3.51104 -3.51106,-3.51104 z m -0.79701,6.54925 c -0.17078,-0.29442 -0.32948,-0.57974 -0.47376,-0.85299 -0.53225,-1.00819 -0.83584,-1.80263 -0.83584,-2.18522 0,-1.16346 0.94314,-2.10663 2.10661,-2.10663 1.16346,0 2.10663,0.94317 2.10663,2.10663 0,0.38259 -0.3036,1.17703 -0.83585,2.18522 -0.1443,0.27325 -0.30298,0.55857 -0.47377,0.85299 -0.2542,0.43819 -0.52437,0.87841 -0.79701,1.30463 -0.27266,-0.42622 -0.54281,-0.86644 -0.79701,-1.30463 z"
       id="light.lantern"
       inkscape:label="#path18738" /><path
       d="m 598.40435,691.76489 32.9849,0 0,-173.55341 -32.9849,0 0,173.55341 z"
       style="fill:#ffffff;fill-opacity:1;fill-rule:nonzero;stroke:#231f20;stroke-width:1.0150578;stroke-linecap:butt;stroke-linejoin:miter;stroke-miterlimit:3.86400008;stroke-dasharray:none;stroke-opacity:1"
       id="path3519-0"
       inkscape:connector-curvature="0" /><path
       d="m 598.80529,519.14969 32.9849,0 0,32.9849 -32.9849,0 0,-32.9849 z"
       style="fill:#ffffff;fill-opacity:1;fill-rule:nonzero;stroke:#231f20;stroke-width:1.0150578;stroke-linecap:butt;stroke-linejoin:miter;stroke-miterlimit:3.86400008;stroke-dasharray:none;stroke-opacity:1"
       id="path3623-2"
       inkscape:connector-curvature="0" /><path
       d="m 598.89498,552.36667 32.9849,0 0,32.98491 -32.9849,0 0,-32.98491 z"
       style="fill:#ffffff;fill-opacity:1;fill-rule:nonzero;stroke:#231f20;stroke-width:1.0150578;stroke-linecap:butt;stroke-linejoin:miter;stroke-miterlimit:3.86400008;stroke-dasharray:none;stroke-opacity:1"
       id="path3623-2-3"
       inkscape:connector-curvature="0" /><g
       style="fill:#ff0b00;fill-opacity:1;image-rendering:optimizeQuality;shape-rendering:geometricPrecision;text-rendering:geometricPrecision"
       id="switch.banklampa_sovrum"
       transform="matrix(0.08247763,0,0,-0.08247763,602.58313,676.52414)"
       inkscape:label="#g18872"><path
         inkscape:connector-curvature="0"
         class="fil0"
         d="m 301,267 -128,0 0,74 26,0 30,277 -156,0 29,-277 27,0 0,-74 -129,0 25,-235 104,0 c 0,-15 1,-32 21,-32 22,0 23,16 23,32 l 103,0 25,235 z"
         id="path18874"
         style="fill:#ff0b00;fill-opacity:1" /></g><g
       style="fill:#ff0b00;fill-opacity:1;image-rendering:optimizeQuality;shape-rendering:geometricPrecision;text-rendering:geometricPrecision"
       id="switch.fonsterlampa_sovrum"
       transform="matrix(0.08247763,0,0,-0.08247763,676.23758,747.2647)"
       inkscape:label="#g18872"><path
         inkscape:connector-curvature="0"
         class="fil0"
         d="m 301,267 -128,0 0,74 26,0 30,277 -156,0 29,-277 27,0 0,-74 -129,0 25,-235 104,0 c 0,-15 1,-32 21,-32 22,0 23,16 23,32 l 103,0 25,235 z"
         id="path18874-5"
         style="fill:#ff0b00;fill-opacity:1" /></g></g></svg>